HIERARCHY
ROOT Hips
{
	OFFSET 0.00000 0.00000 0.00000
	CHANNELS 6 Xposition Yposition Zposition Zrotation Yrotation Xrotation 
	JOINT LHipJoint
	{
		OFFSET 0 0 0
		CHANNELS 3 Zrotation Yrotation Xrotation
		JOINT LeftHip
		{
			OFFSET 1.27966 -1.91611 0.81506
			CHANNELS 3 Zrotation Yrotation Xrotation
			JOINT LeftKnee
			{
				OFFSET 2.49511 -6.85528 0.00000
				CHANNELS 3 Zrotation Yrotation Xrotation
				JOINT LeftAnkle
				{
					OFFSET 2.67286 -7.34045 0.00000
					CHANNELS 3 Zrotation Yrotation Xrotation
					JOINT LeftToe
					{
						OFFSET 0.22740 -0.62477 2.32102
						CHANNELS 3 Zrotation Yrotation Xrotation
						End Site
						{
							OFFSET 0.00000 -0.00000 1.20480
						}
					}
				}
			}
		}
	}
	JOINT RHipJoint
	{
		OFFSET 0 0 0
		CHANNELS 3 Zrotation Yrotation Xrotation
		JOINT RightHip
		{
			OFFSET -1.09666 -1.91611 0.81505
			CHANNELS 3 Zrotation Yrotation Xrotation
			JOINT RightKnee
			{
				OFFSET -2.51373 -6.90642 0.00000
				CHANNELS 3 Zrotation Yrotation Xrotation
				JOINT RightAnkle
				{
					OFFSET -2.70173 -7.42295 0.00000
					CHANNELS 3 Zrotation Yrotation Xrotation
					JOINT RightToe
					{
						OFFSET -0.22214 -0.61032 2.18267
						CHANNELS 3 Zrotation Yrotation Xrotation
						End Site
						{
							OFFSET -0.00000 -0.00000 1.13683
						}
					}
				}
			}
		}
	}
	JOINT lowerback
	{
		OFFSET 0 0 0
		CHANNELS 3 Zrotation Yrotation Xrotation
		JOINT Chest
		{
			OFFSET -0.00990 2.16804 -0.08389
			CHANNELS 3 Zrotation Yrotation Xrotation
			JOINT Chest2
			{
				OFFSET 0.06407 2.15456 0.07285
				CHANNELS 3 Zrotation Yrotation Xrotation
				JOINT lowerneck
				{
					OFFSET 0 0 0
					CHANNELS 3 Zrotation Yrotation Xrotation
					JOINT Neck
					{
						OFFSET -0.16931 1.61602 0.24462
						CHANNELS 3 Zrotation Yrotation Xrotation
						JOINT Head
						{
							OFFSET 0.21556 1.63376 -0.33896
							CHANNELS 3 Zrotation Yrotation Xrotation
							End Site
							{
								OFFSET 0.08444 1.69244 -0.14900
							}
						}
					}
				}
				JOINT LeftCollar
				{
					OFFSET 0 0 0
					CHANNELS 3 Zrotation Yrotation Xrotation
					JOINT LeftShoulder
					{
						OFFSET 2.89000 1.40150 -0.54392
CHANNELS 3 Zrotation Xrotation Yrotation
						JOINT LeftElbow
						{
OFFSET 0 -5.107550 0.000000
CHANNELS 3 Zrotation Xrotation Yrotation
							JOINT LeftWrist
							{
OFFSET 0 -3.362530 0.000000
CHANNELS 3 Zrotation Xrotation Yrotation
								JOINT lhand
								{
									OFFSET 0 0 0
CHANNELS 3 Zrotation Xrotation Yrotation
									JOINT LFingers
									{
OFFSET 0 -0.619090 0.000000
CHANNELS 3 Zrotation Xrotation Yrotation
										End Site
										{
OFFSET 0 -0.499120 0.000000
										}
									}
								}
								JOINT LThumb
								{
OFFSET 0 0.000000 0.000000
CHANNELS 3 Zrotation Xrotation Yrotation
									End Site
									{
OFFSET 0 -0.506750 0.506750
									}
								}
							}
						}
					}
				}
				JOINT RightCollar
				{
					OFFSET 0 0 0
					CHANNELS 3 Zrotation Yrotation Xrotation
					JOINT RightShoulder
					{
						OFFSET -2.65771 1.70968 -0.54312
CHANNELS 3 Zrotation Xrotation Yrotation
						JOINT RightElbow
						{
OFFSET 0 -5.273870 0.000000
CHANNELS 3 Zrotation Xrotation Yrotation
							JOINT RightWrist
							{
OFFSET 0 -3.401440 0.000000
CHANNELS 3 Zrotation Xrotation Yrotation
								JOINT rhand
								{
									OFFSET 0 0 0
CHANNELS 3 Zrotation Xrotation Yrotation
									JOINT RFingers
									{
OFFSET 0 -0.742820 0.000000
CHANNELS 3 Zrotation Xrotation Yrotation
										End Site
										{
OFFSET 0 -0.598880 0.000000
										}
									}
								}
								JOINT RThumb
								{
OFFSET 0 0.000000 0.000000
CHANNELS 3 Zrotation Xrotation Yrotation
									End Site
									{
OFFSET 0 -0.608030 0.608030
									}
								}
							}
						}
					}
				}
			}
		}
	}
}
MOTION
Frames: 9
Frame Time: 0.008333333333333333
-13.529027 18.033247 -34.588570 -1080.268013 -247.988384 720.890756 0.000000 0.000000 0.000000 -12.807025 -11.723168 -8.492050 1.667699 8.136573 23.129675 -1.069630 -25.326137 -9.903539 3.947376 -12.090023 -36.051234 0.000000 0.000000 0.000000 17.792598 17.893872 -4.612679 -3.195555 -11.005057 32.296957 -0.348119 13.529022 -13.309213 -0.008997 0.590460 -1.622723 -2.926632 1.047661 9.926666 1.490374 1.209766 1.501649 3.039137 0.678678 -4.093562 -18.439657 -12.815474 -8.754467 16.403370 -18.433688 25.665954 6.523070 -8.133091 13.532907 0.000000 0.000000 0.000000 2.141935 6.475451 -8.034788 14.933989 -24.053962 3.198969 10.132682 6.112836 -31.334486 0.000000 0.000000 0.000000 -7.125000 0.000000 0.000000 -24.826524 59.963531 9.412549 0.000000 0.000000 0.000000 -7.253012 -4.241260 22.797951 -14.198413 -23.017527 -2.905338 -23.695580 -1.836783 -8.328743 0.000000 0.000000 0.000000 7.125000 0.000000 0.000000 2.290922 20.899878 1.324245
-13.707295 18.015298 -35.615261 -1085.910301 -275.794875 716.529573 0.000000 0.000000 0.000000 -17.088665 3.730864 -12.090628 2.057899 8.985643 25.750578 1.063643 -10.217896 -18.706106 6.115041 -14.538919 -45.441702 0.000000 0.000000 0.000000 21.474824 -1.698085 -17.632341 -4.312336 -12.564809 37.760569 0.144904 -15.810005 -20.931656 -5.341565 13.758329 -42.278083 -5.446113 1.673172 8.299689 2.158818 1.880730 2.077227 5.117238 0.994079 -2.739131 -19.609651 -11.890592 -10.164432 15.196214 -16.463719 24.677629 6.486334 -7.567608 12.946778 0.000000 0.000000 0.000000 3.552228 5.429607 -0.697675 15.432215 -24.744725 3.404822 14.504086 8.115630 -31.414232 0.000000 0.000000 0.000000 -7.125000 0.000000 0.000000 -20.298807 61.075121 8.138012 0.000000 0.000000 0.000000 -8.476698 -4.062321 16.569895 -12.310932 -20.268994 -2.208989 -20.804018 2.932710 -11.510953 0.000000 0.000000 0.000000 7.125000 0.000000 0.000000 4.435244 17.715473 2.896718
-13.539026 18.061649 -35.861529 -1084.686327 -304.080816 716.114023 0.000000 0.000000 0.000000 -16.549112 9.294001 -12.476181 3.747053 11.815962 35.084066 0.532850 6.801910 -17.933923 6.453477 -14.853258 -46.774613 0.000000 0.000000 0.000000 24.773793 -11.479393 -12.191011 -2.543058 -9.915561 28.704030 0.472343 -12.842511 -9.439563 -7.892756 16.039748 -52.175293 -4.286576 1.599413 8.724275 2.208154 1.834010 1.169438 4.498061 0.998823 -3.884822 -20.936995 -11.502481 -9.354955 16.117752 -16.275433 24.704031 7.155859 -7.626635 12.985723 0.000000 0.000000 0.000000 8.998210 8.068302 5.420692 13.353832 -21.803473 2.583215 13.882401 9.573703 -31.806935 0.000000 0.000000 0.000000 -7.125000 0.000000 0.000000 -21.292584 61.286935 8.665835 0.000000 0.000000 0.000000 -5.629304 0.595963 20.987249 -15.573095 -24.938332 -3.463964 -22.261974 -2.355315 -11.882917 0.000000 0.000000 0.000000 7.125000 0.000000 0.000000 3.433469 17.184145 2.268999
-13.803374 17.975395 -35.627842 -1086.872270 -321.606075 713.555250 0.000000 0.000000 0.000000 -11.321847 12.226998 -14.790768 5.838806 14.270041 44.330884 -0.215442 12.247794 -14.178251 6.847549 -15.201644 -48.294449 0.000000 0.000000 0.000000 28.915544 -1.140975 -5.480729 -2.262919 -9.393490 27.034192 -0.508021 -3.847887 -15.423006 -2.216532 9.297310 -26.734333 -3.390934 0.614262 9.802502 3.366074 0.637451 1.081401 5.361948 0.413872 -4.447448 -19.620719 -10.921363 -7.862190 17.219428 -16.218101 23.179562 7.397336 -7.511604 12.025339 0.000000 0.000000 0.000000 11.114193 5.066581 -2.404187 17.431384 -27.422610 4.284329 15.027148 2.935745 -32.036723 0.000000 0.000000 0.000000 -7.125000 0.000000 0.000000 -20.255262 61.782326 8.461157 0.000000 0.000000 0.000000 -2.694400 2.955262 13.229758 -13.422507 -21.902956 -2.608919 -18.878601 4.452041 -8.773204 0.000000 0.000000 0.000000 7.125000 0.000000 0.000000 5.774351 20.734979 3.368063
-13.803306 17.925211 -35.460389 -1086.039299 -337.651583 713.651913 0.000000 0.000000 0.000000 -9.300560 0.770603 -11.084377 7.504426 15.741694 50.756116 0.868240 -3.406684 -16.801581 1.912399 -8.680842 -24.802206 0.000000 0.000000 0.000000 29.284753 3.565143 -1.543518 -2.162242 -9.196051 26.410537 -0.720772 7.341317 -15.230559 -0.065846 1.646361 -4.529596 -0.530062 -0.011829 12.290944 3.458486 0.153472 0.631585 3.927372 0.147228 -6.250325 -18.571627 -9.617734 -10.897845 15.177248 -13.675848 24.482648 6.816735 -6.348933 12.288313 0.000000 0.000000 0.000000 7.696580 5.115932 -13.708779 30.062832 -40.946650 11.451002 17.452135 -3.520054 -30.729282 0.000000 0.000000 0.000000 -7.125000 0.000000 0.000000 -16.569961 61.145936 6.619760 0.000000 0.000000 0.000000 -4.671565 5.303941 11.827953 -11.171664 -18.550880 -1.830222 -16.304490 8.936604 -5.721591 0.000000 0.000000 0.000000 7.125000 0.000000 0.000000 7.797081 23.972668 3.857512
-13.397186 17.942289 -35.211547 -1083.803656 -351.883504 716.632063 0.000000 0.000000 0.000000 -13.713638 -11.386645 -4.122810 2.765151 10.304741 29.969367 0.376001 -13.999909 -13.805821 0.776979 -5.623796 -15.697834 0.000000 0.000000 0.000000 25.821518 7.580819 -2.672949 -2.544101 -9.917704 28.710653 -0.149784 16.825745 -13.253896 -0.003807 0.398631 -1.095384 -1.281433 -0.301967 11.280436 3.979117 -0.321017 0.538215 4.977578 -0.068215 -5.741787 -16.760798 -7.997340 -15.659674 13.350207 -10.593479 25.478102 6.254657 -4.818845 12.753794 0.000000 0.000000 0.000000 2.427615 5.982350 -26.443687 32.525813 -42.962267 13.097805 10.631454 1.997475 -31.123337 0.000000 0.000000 0.000000 -7.125000 0.000000 0.000000 -24.150610 59.886009 9.105831 0.000000 0.000000 0.000000 -7.846977 3.133899 11.577172 -12.185354 -20.081938 -2.165605 -23.304653 2.379493 -9.725260 0.000000 0.000000 0.000000 7.125000 0.000000 0.000000 2.616135 19.415743 1.600863
-13.008071 18.004193 -34.970640 -1082.230000 -362.236730 718.329160 0.000000 0.000000 0.000000 -16.178811 -2.127091 -3.594851 2.164743 9.201056 26.426278 0.708285 -11.798997 -16.021715 0.990128 -6.303108 -17.676508 0.000000 0.000000 0.000000 26.167128 0.811903 -9.075106 -3.330834 -11.212250 32.999079 -1.196915 3.040042 -19.893324 -0.258808 -3.210822 8.871214 -2.831612 -0.137556 11.105963 3.416369 -0.328356 -0.346018 5.281272 -0.002968 -6.577654 -16.144299 -6.941119 -15.285308 14.138624 -9.327776 23.338569 6.595641 -4.123366 11.604809 0.000000 0.000000 0.000000 -0.552519 6.869735 -30.058892 22.856921 -33.930237 7.059037 9.429452 4.085230 -33.347828 0.000000 0.000000 0.000000 -7.125000 0.000000 0.000000 -27.388815 61.576965 11.529238 0.000000 0.000000 0.000000 -4.620323 3.780056 11.982191 -14.160505 -22.963640 -2.890435 -20.845237 1.163137 -10.479274 0.000000 0.000000 0.000000 7.125000 0.000000 0.000000 4.384874 18.802960 2.745802
-12.794981 17.978290 -34.847591 -1082.486194 -371.694947 720.973035 0.000000 0.000000 0.000000 -17.040170 1.129604 -5.652041 2.148138 9.168039 26.322304 1.042708 -7.974776 -18.288569 0.925914 -6.114907 -17.122861 0.000000 0.000000 0.000000 25.742240 3.254349 -9.122702 -2.765766 -10.305919 29.973109 -1.152566 6.398744 -19.178022 -0.311639 -3.578034 9.893535 -1.741947 1.238194 9.905709 3.115892 1.620049 0.122509 4.017944 0.888136 -5.576694 -16.374667 -7.380387 -16.391549 12.589456 -8.938669 19.855113 5.940262 -4.060163 10.396827 0.000000 0.000000 0.000000 -1.928039 5.810312 -17.048723 16.377050 -26.029068 3.809980 12.191033 6.635634 -33.190863 0.000000 0.000000 0.000000 -7.125000 0.000000 0.000000 -24.340642 62.125530 10.473294 0.000000 0.000000 0.000000 -1.158634 2.233238 13.151944 -13.846339 -22.514615 -2.768976 -18.968452 3.097608 -15.007225 0.000000 0.000000 0.000000 7.125000 0.000000 0.000000 5.814028 14.210929 4.231054
-13.006274 17.885598 -34.670749 -1083.924858 -368.829214 721.330289 0.000000 0.000000 0.000000 -14.585197 -1.176577 -8.451752 3.313540 11.184686 32.907007 0.178704 -12.185960 -10.808137 3.348955 11.232268 33.075817 0.000000 0.000000 0.000000 28.126790 1.754263 -8.961170 -2.823503 -10.403652 30.294108 -2.571581 11.339551 -28.896611 -5.146897 -13.547391 41.453573 -1.529151 0.179540 11.888172 3.845144 0.280984 0.160465 4.895737 0.248527 -6.543959 -16.191041 -7.431912 -16.154477 11.984092 -9.009510 20.535912 5.692295 -4.155452 10.568186 0.000000 0.000000 0.000000 0.967021 7.875533 -15.208166 15.548435 -24.904438 3.453727 10.310143 8.415146 -33.212252 0.000000 0.000000 0.000000 -7.125000 0.000000 0.000000 -26.338896 61.676260 11.112260 0.000000 0.000000 0.000000 -2.031452 2.904449 13.552805 -14.059022 -22.818990 -2.850973 -20.087871 1.821491 -12.983748 0.000000 0.000000 0.000000 7.125000 0.000000 0.000000 4.981422 16.220230 3.404335
